<?xml version="1.0" encoding="UTF-8"?>
<svg id="Layer_1" xmlns="http://www.w3.org/2000/svg" xmlns:xlink="http://www.w3.org/1999/xlink" version="1.1" viewBox="0 0 200 200">
  <!-- Generator: Adobe Illustrator 29.7.1, SVG Export Plug-In . SVG Version: 2.1.1 Build 8)  -->
  <defs>
    <style>
      .st0, .st1 {
        fill: none;
      }

      .st1 {
        stroke: #000;
        stroke-miterlimit: 3.98;
        stroke-width: 5.08px;
      }

      .st2 {
        clip-path: url(#clippath);
      }
    </style>
    <clipPath id="clippath">
      <polygon class="st0" points="50.51 81.59 192.05 81.59 154.05 168.48 12.51 168.48 50.51 81.59"/>
    </clipPath>
  </defs>
  <g class="st2">
    <g>
      <path class="st1" d="M156.29,81.59h35.76l-38,86.89H12.51l38-86.89h10.45"/>
      <path class="st1" d="M156.29,81.59"/>
      <path class="st1" d="M68.48,81.59"/>
    </g>
  </g>
  <path d="M107.37,24.83c-25.45,0-38.89,13.45-38.89,38.92,0,37.79,37.94,69.35,38.32,69.66h1.19c.33-.35,38.27-31.91,38.27-69.66,0-25.47-13.44-38.92-38.88-38.92h0ZM107.37,103.33l-14.68-13.35-6.2-24.8,6.08-16.25,14.8-5.38,14.8,5.4,6.08,16.23-6.2,24.8s-14.68,13.35-14.68,13.35ZM91.08,90.93l3.68,18.46-14.64-11.44v-16.77l10.96,9.74h0ZM85.55,62.56l-5.04-13.43h10.09l-5.05,13.43ZM85.32,67.81l5.01,20.06-10.02-8.9,5.01-11.16ZM96.74,110.1l-3.43-17.16,12.59,11.46-9.16,5.7ZM118.13,38.19l3.19,8.51-11.69-4.23,8.5-4.27h0ZM107.37,41.59l-9.76-4.86,9.76-9.76,9.76,9.76-9.76,4.86ZM96.61,38.22l8.51,4.24-11.71,4.27,3.19-8.51h.01ZM129.43,67.84l5.01,11.14-10.02,8.9,5.02-20.03h0ZM129.19,62.56l-5.05-13.43h10.09l-5.04,13.43ZM121.45,92.94l-3.37,17.16-9.23-5.7,12.6-11.46h0ZM123.67,90.93l10.96-9.74v16.77l-14.64,11.44,3.69-18.46h-.01ZM130.16,65.09l5.58-14.92,8.58,13.57-8.66,13.58-5.5-12.23ZM123.48,47.34l-3.71-9.87,10.77-4.46,3.83,14.33s-10.89,0-10.89,0ZM118.84,35.92l-9.29-9.28c7.85.26,14.46,1.95,19.66,5.01l-10.38,4.27h0ZM95.91,35.92l-10.38-4.27c5.21-3.06,11.81-4.75,19.66-5.01l-9.28,9.28ZM94.97,37.47l-3.71,9.87h-10.92l3.87-14.33,10.76,4.46ZM79.01,50.22l5.58,14.87-5.5,12.23-8.65-13.58,8.58-13.53h-.01ZM77.83,78.75l-5.19,1.56c-1.24-4.35-2.02-8.81-2.3-13.33,0,0,7.49,11.77,7.49,11.77ZM78.34,80.39v14.26c-2.08-4.09-3.82-8.34-5.19-12.72l5.19-1.54ZM94.64,111.55l-3.56,2.71c-3.14-3.89-6.03-7.99-8.67-12.24l12.23,9.53ZM107.37,105.59l10.08,6.3-10.08,18.91-10.08-18.91,10.08-6.3ZM132.33,102.02c-2.62,4.25-5.49,8.35-8.62,12.24l-3.57-2.71,12.19-9.53ZM136.41,80.39l5.19,1.56c-1.38,4.37-3.1,8.62-5.19,12.71v-14.26h0ZM136.91,78.67l7.49-11.77c-.29,4.52-1.06,8.98-2.3,13.33l-5.19-1.56ZM144.4,60.5l-8.05-12.63-3.72-13.94c7.19,5.67,11.18,14.61,11.77,26.59h0v-.02ZM82.11,33.93l-3.71,13.94-8.05,12.65c.59-11.98,4.57-20.92,11.76-26.59ZM92.16,115.65l3.66-2.74,8.32,15.71c-4.27-4.06-8.26-8.39-11.98-12.97h0ZM110.55,128.62l8.31-15.71,3.66,2.74c-3.71,4.58-7.71,8.91-11.97,12.97Z"/>
</svg>