<svg xmlns="http://www.w3.org/2000/svg" xmlns:xlink="http://www.w3.org/1999/xlink" id="svg" version="1.1" viewBox="2.77 -0.02 397.23 400.07"><g id="svgg"><path id="path0" d="M302.597 0.594 C 298.278 2.199,298.746 1.690,279.579 25.652 C 263.750 45.440,262.903 46.451,262.325 46.231 C 261.232 45.815,229.674 45.946,227.625 46.375 C 221.143 47.731,216.015 53.364,215.349 59.858 L 215.181 61.500 175.064 61.500 C 143.064 61.500,134.974 61.563,135.083 61.812 C 143.143 80.326,143.660 97.943,136.733 118.000 C 135.902 120.406,135.159 122.572,135.082 122.813 C 134.949 123.228,136.967 123.250,175.096 123.250 L 215.250 123.250 215.254 123.938 C 215.287 129.062,219.199 134.769,224.273 137.095 C 227.378 138.518,227.340 138.515,245.980 138.484 L 263.125 138.455 279.303 158.665 C 288.201 169.781,296.205 179.566,297.090 180.411 C 300.955 184.101,306.975 185.427,312.300 183.762 C 313.572 183.364,323.389 177.592,353.050 159.804 C 374.541 146.915,392.969 135.954,394.000 135.445 C 396.069 134.425,397.638 133.221,399.063 131.559 L 400.000 130.466 400.000 121.455 L 400.000 112.444 398.188 110.649 C 392.657 105.173,383.920 104.524,377.873 109.139 C 377.212 109.644,366.311 116.304,353.648 123.940 C 340.985 131.576,326.365 140.394,321.158 143.537 C 315.951 146.679,311.659 149.250,311.620 149.250 C 311.581 149.250,303.776 139.533,294.275 127.656 L 277.000 106.062 277.000 92.312 L 277.000 78.562 294.188 57.078 C 303.641 45.262,311.468 35.559,311.581 35.516 C 311.844 35.416,374.235 72.996,377.750 75.371 C 385.000 80.271,393.901 79.327,399.035 73.113 L 400.000 71.946 400.000 62.961 L 400.000 53.976 398.188 52.164 C 396.774 50.750,395.825 50.073,393.875 49.082 C 392.500 48.384,374.275 37.549,353.375 25.004 C 313.752 1.223,313.468 1.057,311.267 0.403 C 309.126 -0.232,304.549 -0.132,302.597 0.594 M56.000 33.756 C 12.142 37.909,-11.767 87.619,12.356 124.500 C 37.914 163.575,97.264 158.348,115.605 115.408 C 133.027 74.620,100.145 29.577,56.000 33.756 M68.174 58.991 C 91.687 63.980,102.963 90.581,90.060 110.625 C 74.827 134.289,39.193 130.132,29.511 103.563 C 20.658 79.268,42.899 53.628,68.174 58.991 M59.134 76.017 C 45.382 78.127,40.216 95.136,50.472 104.534 C 60.823 114.019,77.960 106.481,77.996 92.427 C 78.022 82.300,69.050 74.494,59.134 76.017 M119.125 151.669 C 112.651 160.165,100.606 168.217,88.591 172.080 C 63.909 180.015,38.040 174.679,17.555 157.426 C 16.416 156.467,15.437 155.730,15.379 155.788 C 15.321 155.846,37.406 193.464,64.456 239.384 L 113.638 322.875 78.257 323.004 C 49.533 323.109,42.688 323.196,41.879 323.469 C 36.366 325.332,32.507 329.336,31.137 334.615 C 30.651 336.487,30.546 385.732,31.023 388.050 C 32.109 393.330,36.816 398.184,42.250 399.629 C 44.370 400.192,293.909 400.186,296.135 399.623 C 301.486 398.268,305.901 393.899,307.251 388.622 C 307.927 385.977,308.031 337.598,307.366 334.779 C 306.434 330.822,303.338 326.771,299.860 324.956 C 296.010 322.948,300.061 323.140,258.661 323.000 L 221.698 322.875 171.286 236.441 C 143.560 188.902,120.763 150.012,120.625 150.018 C 120.487 150.024,119.813 150.767,119.125 151.669 " stroke="none" fill="#040404" fill-rule="evenodd"/><path id="path1" d="" stroke="none" fill="#080404" fill-rule="evenodd"/></g></svg>