<svg width="196" height="34" viewBox="0 0 196 34" fill="none" xmlns="http://www.w3.org/2000/svg">
<path d="M74.0071 15.0415V15.0326H63.4004V4.55884H80.7947V4.5544H82.2081L84.0246 0.0839844H58.416V33.9954H63.4004V19.4632H73.7058V19.4676H76.2047L78.0035 15.0415H74.0071Z" fill="white"/>
<path d="M38.4128 0C38.2578 0 38.1071 0.0575906 37.9919 0.159493L0 34H11.3865L38.1957 0.939273L30.5973 34H38.8559V0.443055C38.8559 0.199375 38.6565 0 38.4128 0Z" fill="white"/>
<path d="M91.1014 0.0839844L77.3047 33.9954H82.6568L86.0727 25.2761H98.1061L96.325 20.8854L87.8272 20.8943L93.7332 5.75951L98.3542 17.5979V17.6024L102.78 28.9578L102.771 28.9711L104.712 33.9954H110.108L96.4092 0.0839844H91.1014Z" fill="white"/>
<path d="M118.907 15.2187V4.55884H128.827C132.797 4.55884 135.007 6.72537 135.007 9.91093C135.007 13.0965 132.792 15.2187 128.827 15.2187H118.911H118.907ZM139.987 9.91093C139.987 4.14236 135.929 0.0839844 128.96 0.0839844H113.918V33.9954H118.902V19.6448H125.685L135.557 33.9954H141.418L131.175 19.5075C136.895 18.7676 139.987 15.0769 139.987 9.91093Z" fill="white"/>
<path d="M147.834 28.7715C146.394 28.7715 145.225 29.9411 145.225 31.3811C145.225 32.821 146.394 33.9907 147.834 33.9907C149.274 33.9907 150.444 32.821 150.444 31.3811C150.444 29.9411 149.274 28.7715 147.834 28.7715Z" fill="white"/>
<path d="M195.998 0.0839844H191.062V33.9954H195.998V0.0839844Z" fill="white"/>
<path d="M168.267 0.0839844L154.471 33.9954H159.823L163.234 25.2761H175.272L173.487 20.8854L164.989 20.8943L170.895 5.75951L175.516 17.5979L175.52 17.6024L179.946 28.9578L179.933 28.9711L181.878 33.9954H187.274L173.571 0.0839844H168.267Z" fill="white"/>
</svg>
