<svg xmlns="http://www.w3.org/2000/svg" width="205" height="53" viewBox="0 0 205 53" fill="none"><path d="M102.235 46.0644L94.2544 18.2203H94.0147C94.3886 22.9623 94.5755 26.6467 94.5755 29.2736V46.0644H85.2336V7.40442H99.2735L107.414 34.8526H107.628L115.608 7.40442H129.675V46.0644H119.987V29.1139C119.987 28.2331 119.999 27.2547 120.027 26.1788C120.054 25.1042 120.174 22.4674 120.386 18.2726H120.146L112.273 46.0644H102.238H102.235Z" fill="white"></path><path d="M138.081 46.0644V7.40442H148.677V46.0644H138.081Z" fill="white"></path><path d="M167.655 31.9967V46.0644H157.111V7.40442H169.897C180.502 7.40442 185.805 11.2119 185.805 18.8282C185.805 23.3058 183.599 26.7697 179.186 29.2199L190.556 46.0644H178.598L170.324 31.9967H167.655ZM167.655 24.1443H169.63C173.313 24.1443 175.154 22.5311 175.154 19.3047C175.154 16.6424 173.348 15.312 169.736 15.312H167.654V24.1443H167.655Z" fill="white"></path><path d="M194.106 46.0644V7.40442H204.703V46.0644H194.106Z" fill="white"></path><path d="M102.235 46.0644L94.2544 18.2203H94.0147C94.3886 22.9623 94.5755 26.6467 94.5755 29.2736V46.0644H85.2336V7.40442H99.2735L107.414 34.8526H107.628L115.608 7.40442H129.675V46.0644H119.987V29.1139C119.987 28.2331 119.999 27.2547 120.027 26.1788C120.054 25.1042 120.174 22.4674 120.386 18.2726H120.146L112.273 46.0644H102.238H102.235Z" fill="white"></path><path d="M138.081 46.0644V7.40442H148.677V46.0644H138.081Z" fill="white"></path><path d="M167.655 31.9967V46.0644H157.111V7.40442H169.897C180.502 7.40442 185.805 11.2119 185.805 18.8282C185.805 23.3058 183.599 26.7697 179.186 29.2199L190.556 46.0644H178.598L170.324 31.9967H167.655ZM167.655 24.1443H169.63C173.313 24.1443 175.154 22.5311 175.154 19.3047C175.154 16.6424 173.348 15.312 169.736 15.312H167.654V24.1443H167.655Z" fill="white"></path><path d="M194.106 46.0644V7.40442H204.703V46.0644H194.106Z" fill="white"></path><g clip-path="url(#clip0_124_1195)"><mask id="mask0_124_1195" style="mask-type:luminance" maskUnits="userSpaceOnUse" x="29" y="25" width="17" height="28"><path d="M36.7638 52.3278V52.3729C36.7638 52.3729 36.7638 52.3382 36.7638 52.3174V52.3278ZM36.7812 51.8173C36.7846 51.7409 36.7916 51.6402 36.7951 51.5603C36.8506 50.6193 36.8645 50.4491 36.9166 49.8241C37.0555 48.3691 37.0694 48.2163 37.184 47.3204C37.434 45.5112 37.4583 45.3237 37.6493 44.2124C37.8334 43.2089 37.941 42.6428 38.0278 42.2018C37.0937 46.7578 36.8472 50.4318 36.7846 51.8173M38.3577 40.6809C38.2049 41.3476 38.1285 41.6914 38.0278 42.2018C38.1389 41.6566 38.2605 41.101 38.3924 40.5315L38.3577 40.6774V40.6809ZM38.3924 40.5315L38.4827 40.1461C38.4515 40.2746 38.4202 40.4031 38.3924 40.5315ZM35.4894 40.6253C35.7765 42.1694 35.9802 43.3547 36.1006 44.1812C36.2834 45.5702 36.4096 46.612 36.4791 47.3065C36.5786 48.4362 36.6446 49.2742 36.677 49.8206C36.7187 50.6864 36.7441 51.3346 36.7534 51.7652C36.7603 52.0812 36.7603 52.2896 36.7603 52.3729V52.3417C36.7603 51.668 36.7291 46.3515 35.3366 39.8752C35.3817 40.0871 35.4304 40.3232 35.4894 40.6253ZM35.3366 39.8787C35.2776 39.6009 35.2289 39.3682 35.163 39.0939C35.222 39.3578 35.281 39.6183 35.3366 39.8787ZM35.163 39.0939C34.9928 38.3543 34.8053 37.6007 34.6004 36.8402C34.8991 38.0139 35.0518 38.6147 35.163 39.0939ZM34.5969 36.8333C34.5969 36.8333 34.5969 36.8333 34.5969 36.8263V36.8333ZM34.5935 36.8298C34.5449 36.6423 34.4928 36.4548 34.4372 36.2707L34.5935 36.8298ZM36.7638 52.2236C36.7638 52.1507 36.7708 52.05 36.7742 51.977C36.8541 50.022 37.3576 41.8025 40.4482 33.7184L40.6565 33.1871C41.4552 31.2911 41.5594 31.0445 42.2261 29.7632C43.0248 28.336 43.0908 28.2179 43.636 27.4227C37.434 36.3506 36.8263 50.4248 36.7708 52.2236M34.458 28.1589C36.9548 32.7079 36.7708 51.3902 36.7603 52.3729C36.7742 51.3902 37.0243 32.7183 36.802 28.4714C36.7569 27.6171 36.6944 27.2734 36.6249 27.2629C36.0624 27.2213 35.3158 27.1692 34.7532 27.1032C34.2045 27.0129 33.4684 26.8914 32.9197 26.7768C33.4718 26.9087 33.9962 27.3255 34.4546 28.1589M40.7885 27.0233C40.1461 27.1067 39.2849 27.2004 38.6355 27.2525C38.4237 27.2734 38.2119 27.6171 38.0209 28.4644C37.059 32.7183 36.7742 51.3902 36.7603 52.3729C36.7777 51.3902 37.1284 32.7079 40.3475 28.1207C40.9031 27.3324 41.5212 26.9087 42.1601 26.7455C41.7469 26.8324 41.1982 26.9504 40.785 27.0233M30.3396 26.8115C31.1001 27.9991 31.2355 28.211 31.93 29.5757C32.1557 30.0618 32.4613 30.7077 32.6732 31.2008C36.7013 40.6774 36.7603 51.3624 36.7603 52.3417C36.7603 51.1471 36.7048 35.4165 30.0792 26.4469L30.3361 26.808L30.3396 26.8115ZM44.3201 26.2976C37.3993 32.5169 36.809 50.5776 36.7638 52.2826C36.8055 50.5776 37.3541 32.5447 43.4311 26.881C43.9416 26.4087 44.4798 26.0094 45.0354 25.6795C44.8826 25.7628 44.6743 25.8705 44.5145 25.9469C44.2159 26.0753 43.8131 26.242 43.504 26.3531C42.7748 26.6101 42.0733 27.072 41.4379 27.7977C37.1597 32.6975 36.7777 51.3902 36.7603 52.3729C36.7603 52.359 36.7603 52.3451 36.7603 52.3278V52.3139V52.3069C36.7603 52.3069 36.7603 52.3035 36.7603 52.3C36.802 50.7825 37.375 34.5345 44.452 26.3393C44.6291 26.1413 44.8687 25.8843 45.0562 25.7038C45.1014 25.6656 45.1604 25.617 45.2021 25.5788C44.9 25.801 44.6048 26.0441 44.3166 26.3011M31.3223 26.9574C36.8645 32.6732 36.7673 51.3867 36.7603 52.3729C36.7673 51.3902 36.9235 32.701 33.3538 27.8498C32.7739 27.065 32.121 26.5962 31.4335 26.3636C31.1279 26.2524 30.7146 26.1066 30.4125 25.9816C30.1347 25.8531 29.7632 25.6795 29.4888 25.5371C30.1347 25.9017 30.7528 26.367 31.3258 26.9539M29.0478 25.2662C29.093 25.3079 29.1589 25.3635 29.2041 25.4051L29.4645 25.676C36.7916 33.6385 36.7638 51.411 36.7603 52.3729C36.7638 51.3867 36.8367 32.6558 30.4056 26.3844C29.9924 25.9816 29.5583 25.6239 29.1103 25.3114L29.0478 25.2662Z" fill="white"></path></mask><g mask="url(#mask0_124_1195)"><path d="M45.209 25.2662H29.0478V52.3729H45.209V25.2662Z" fill="white"></path></g><mask id="mask1_124_1195" style="mask-type:luminance" maskUnits="userSpaceOnUse" x="0" y="-1" width="75" height="51"><path d="M36.5068 48.0288C36.4999 47.9385 36.4895 47.8413 36.4791 47.7371C36.4791 47.7336 36.4791 47.7267 36.4791 47.7232C36.4895 47.8274 36.4999 47.9316 36.5068 48.0288ZM36.4756 47.7232C36.4756 47.7232 36.4756 47.7093 36.4756 47.7024C36.4756 47.7093 36.4756 47.7163 36.4756 47.7232ZM36.4756 47.7024C36.42 47.1294 36.3541 46.5113 36.2777 45.8654C36.3263 46.2891 36.3818 46.803 36.4756 47.7024ZM36.2742 45.8654C36.2568 45.7057 36.236 45.5564 36.2186 45.4001C36.2395 45.5564 36.2568 45.7126 36.2742 45.8654ZM40.4482 33.8469L40.6357 33.3573C40.5732 33.5205 40.5107 33.6837 40.4482 33.8469ZM40.6565 33.3052L40.6357 33.3573C40.6531 33.3122 40.6704 33.2705 40.6878 33.2253C40.6774 33.2497 40.667 33.2774 40.6565 33.3052ZM40.8232 32.885C40.8441 32.8295 40.8649 32.7774 40.8892 32.7218C40.8684 32.7739 40.8475 32.826 40.8232 32.885ZM40.8857 32.7253C40.8857 32.7253 40.8927 32.7114 40.8927 32.7045C40.8927 32.7114 40.8892 32.7184 40.8857 32.7253ZM40.8961 32.7045C40.8961 32.7045 40.8961 32.6975 40.8996 32.694C40.8996 32.6975 40.8996 32.701 40.8961 32.7045ZM40.8996 32.6906C40.9482 32.5656 40.9968 32.4544 41.042 32.3468C40.9934 32.4614 40.9482 32.576 40.8996 32.6906ZM8.02157 19.5956C9.66756 21.384 11.5323 23.023 13.5811 24.4815C14.0846 24.2905 22.9882 20.9256 29.0617 25.2211C29.093 25.2489 29.1242 25.2767 29.1555 25.3079C29.1346 25.2871 29.1173 25.2663 29.0964 25.2454C29.0999 25.2489 29.1069 25.2524 29.1103 25.2559L29.093 25.2454C29.0027 25.1552 28.9159 25.0545 28.8256 24.9676C23.9189 20.1929 16.7134 19.3421 12.1921 19.3421C9.8655 19.3421 8.25076 19.5678 8.02505 19.5991M30.0306 26.1552C30.0861 26.1552 30.1451 26.1483 30.2007 26.1448C30.4299 26.5372 30.6521 26.9366 30.8674 27.3359C30.8362 27.3567 30.8084 27.3776 30.7772 27.3984C30.5375 26.9782 30.2875 26.5615 30.0306 26.1552ZM0 0.170203C0 0.239654 0 0.312577 0 0.3855C0.0451431 2.74683 0.39587 5.04565 1.01398 7.26114C1.84045 7.44866 17.585 11.0393 26.8254 21.45C28.0026 22.7765 29.0374 24.2176 29.9507 25.7281C29.85 25.6795 29.7493 25.6274 29.652 25.5788C28.902 24.4572 28.0755 23.3876 27.1588 22.4049C18.2239 12.8554 2.98986 10.7233 2.1877 10.6121C3.10445 12.7894 4.29206 14.8591 5.71233 16.7933C6.43115 16.7655 20.1408 16.2099 28.1658 24.1655C28.5513 24.5475 28.9159 24.9537 29.2701 25.3739C29.2388 25.3566 29.2041 25.3392 29.1728 25.3218C29.1659 25.3149 29.1624 25.3114 29.1555 25.3079C29.1589 25.3114 29.1624 25.3184 29.1694 25.3218C24.0057 22.6619 17.203 26.315 16.7967 26.5372C19.0191 27.8082 21.4048 28.8847 23.9224 29.7354C24.1342 29.5063 27.0303 26.4261 29.8917 26.1657C29.9542 26.2525 30.0236 26.3358 30.0826 26.4226L30.3396 26.7942C30.4959 27.0407 30.6244 27.2422 30.7424 27.4297C29.2145 28.5617 27.9192 30.6522 27.8012 30.8467C29.4506 31.2356 31.1452 31.5307 32.8711 31.7252C33.4857 33.3017 34.0031 34.8956 34.4407 36.4583L34.6004 37.0417C34.9616 38.4133 35.0032 38.6043 35.4929 40.9136C35.7429 42.1915 35.7707 42.3686 36.104 44.5493C36.1526 44.8966 36.1874 45.157 36.2221 45.407C35.7359 41.5872 34.8157 36.7187 33.0621 31.7426C34.0379 31.8502 35.0275 31.9231 36.0276 31.9648C36.0485 31.6731 36.3853 27.2595 36.6284 27.256C36.0658 27.2283 35.3227 27.1484 34.7602 27.0963C34.208 27.013 33.4753 26.8706 32.9267 26.7629C32.3572 26.624 31.7599 26.7977 31.1834 27.138C31.0341 26.8185 30.8813 26.499 30.7216 26.1796C30.9612 26.2073 31.2008 26.2594 31.4335 26.3393C31.2008 26.2594 30.9126 26.1483 30.6556 26.0441C29.5097 23.7488 28.1519 21.5159 26.5406 19.4324C17.0363 7.18821 0.850773 0.52093 0 0.170203ZM43.7089 26.7768C43.8304 26.572 43.9555 26.3671 44.0805 26.1622C44.1638 26.1448 44.2506 26.1275 44.334 26.1136C44.1777 26.3497 44.018 26.5858 43.8686 26.8289C43.8166 26.8116 43.761 26.7942 43.7089 26.7768ZM47.8933 19.3803C46.0633 21.6687 44.5354 24.1446 43.2575 26.6761C42.8929 26.6206 42.5248 26.631 42.1636 26.7247C41.7539 26.822 41.2017 26.9262 40.7885 27.006C40.1461 27.0998 39.2849 27.1831 38.6355 27.2387C39.4203 27.1658 40.2503 31.6384 40.3058 31.9336C40.5315 31.9231 40.7538 31.9058 40.976 31.8884C38.3681 38.83 37.3715 45.5459 36.993 49.463C37.0277 49.1331 37.0763 48.7025 37.184 47.7475C37.272 47.0391 37.4271 45.98 37.6493 44.5702C37.7928 43.7321 38.029 42.5283 38.3577 40.9587L38.4827 40.4135C39.1217 37.698 39.9968 34.7672 41.1948 31.8711C43.702 31.6835 46.1362 31.2911 48.4698 30.7043C48.3066 30.482 46.2578 27.704 44.0145 26.8741C44.2124 26.5997 44.4138 26.3323 44.6257 26.0684C48.2024 25.7212 52.0395 29.3014 52.3 29.5445C54.7794 28.659 57.1199 27.5547 59.2867 26.256C58.8318 26.0337 50.9561 22.1965 45.1708 25.5545L45.2056 25.5232C51.8485 20.5297 61.8599 23.971 62.4086 24.1585C64.3948 22.6758 66.1867 21.0159 67.7563 19.2032C67.0618 19.1199 53.8175 17.5156 45.841 24.8461C45.5841 25.0822 45.341 25.3323 45.1014 25.5892C45.0806 25.6031 45.0563 25.6135 45.0354 25.6274C45.0042 25.6448 44.966 25.6656 44.9278 25.6865C45.4139 25.1065 45.9244 24.5544 46.4696 24.0405C55.012 15.9807 69.2043 16.3523 69.9509 16.3731C71.2878 14.4215 72.3852 12.338 73.2082 10.1468C72.3852 10.2684 56.7796 12.6019 47.3967 22.266C46.3064 23.3911 45.3306 24.6273 44.4555 25.9295C44.3548 25.9712 44.2471 26.0198 44.136 26.065C45.1708 24.3843 46.3446 22.7765 47.6884 21.3076C57.3352 10.7719 73.3887 6.97639 74.236 6.77498C74.75 4.59075 75 2.31971 74.9548 -0.00689697C74.0937 0.347302 57.7276 7.08751 47.8968 19.3734" fill="white"></path></mask><g mask="url(#mask1_124_1195)"><path d="M75 0H0V49.4629H75V0Z" fill="white"></path></g></g><defs><clipPath id="clip0_124_1195"><rect width="75" height="52.3729" fill="white"></rect></clipPath></defs></svg>